<svg width="51" height="44" viewBox="0 0 51 44" fill="none" xmlns="http://www.w3.org/2000/svg">
<path d="M5.14372 36.2353V34.5529C5.14372 33.6729 5.55522 32.8447 6.19818 32.4565C10.5446 29.8424 15.5083 28.4706 20.5749 28.4706C20.652 28.4706 20.7035 28.4706 20.7806 28.4965C21.0378 26.6847 21.5522 24.9506 22.298 23.3718C21.7322 23.32 21.1664 23.2941 20.5749 23.2941C14.351 23.2941 8.53858 25.0282 3.57489 28.0047C1.31165 29.3506 0 31.8871 0 34.5529V41.4118H23.8154C22.7353 39.8588 21.8865 38.0988 21.3207 36.2353H5.14372Z" fill="#EAEAEA"/>
<path d="M20.5749 20.7059C26.2587 20.7059 30.8623 16.0729 30.8623 10.3529C30.8623 4.63294 26.2587 0 20.5749 0C14.8911 0 10.2874 4.63294 10.2874 10.3529C10.2874 16.0729 14.8911 20.7059 20.5749 20.7059ZM20.5749 5.17647C23.4039 5.17647 25.7186 7.50588 25.7186 10.3529C25.7186 13.2 23.4039 15.5294 20.5749 15.5294C17.7458 15.5294 15.4312 13.2 15.4312 10.3529C15.4312 7.50588 17.7458 5.17647 20.5749 5.17647Z" fill="#EAEAEA"/>
<path d="M48.2224 31.0588C48.2224 30.4894 48.1452 29.9718 48.0681 29.4282L51 26.8141L48.4281 22.3365L44.6989 23.6047C43.8759 22.9059 42.9501 22.3624 41.9213 21.9741L41.1498 18.1176H36.0061L35.2345 21.9741C34.2057 22.3624 33.2799 22.9059 32.4569 23.6047L28.7277 22.3365L26.1558 26.8141L29.0877 29.4282C29.0106 29.9718 28.9334 30.4894 28.9334 31.0588C28.9334 31.6282 29.0106 32.1459 29.0877 32.6894L26.1558 35.3035L28.7277 39.7812L32.4569 38.5129C33.2799 39.2118 34.2057 39.7553 35.2345 40.1435L36.0061 44H41.1498L41.9213 40.1435C42.9501 39.7553 43.8759 39.2118 44.6989 38.5129L48.4281 39.7812L51 35.3035L48.0681 32.6894C48.1452 32.1459 48.2224 31.6282 48.2224 31.0588ZM38.5779 36.2353C35.7489 36.2353 33.4342 33.9059 33.4342 31.0588C33.4342 28.2118 35.7489 25.8824 38.5779 25.8824C41.407 25.8824 43.7216 28.2118 43.7216 31.0588C43.7216 33.9059 41.407 36.2353 38.5779 36.2353Z" fill="#EAEAEA"/>
</svg>
