<svg width="47" height="34" viewBox="0 0 47 34" fill="none" xmlns="http://www.w3.org/2000/svg">
<path d="M38.4545 21.25V4.25C38.4545 1.9125 36.5318 0 34.1818 0H4.27273C1.92273 0 0 1.9125 0 4.25V21.25C0 23.5875 1.92273 25.5 4.27273 25.5H34.1818C36.5318 25.5 38.4545 23.5875 38.4545 21.25ZM34.1818 21.25H4.27273V4.25H34.1818V21.25ZM19.2273 6.375C15.6809 6.375 12.8182 9.2225 12.8182 12.75C12.8182 16.2775 15.6809 19.125 19.2273 19.125C22.7736 19.125 25.6364 16.2775 25.6364 12.75C25.6364 9.2225 22.7736 6.375 19.2273 6.375ZM47 6.375V29.75C47 32.0875 45.0773 34 42.7273 34H6.40909V29.75H42.7273V6.375H47Z" fill="#D9D9D9"/>
</svg>
