<svg width="34" height="40" viewBox="0 0 34 40" fill="none" xmlns="http://www.w3.org/2000/svg">
<path d="M13.2411 36.2977C13.2411 38.3442 14.9222 40 17 40C19.0778 40 20.7589 38.3442 20.7589 36.2977H13.2411ZM17 8.37209C22.2133 8.37209 26.4444 12.5395 26.4444 17.6744V30.6977H7.55556V17.6744C7.55556 12.5395 11.7867 8.37209 17 8.37209ZM17 0C15.4322 0 14.1667 1.24651 14.1667 2.7907V4.96744C8.23555 6.23256 3.77778 11.4419 3.77778 17.6744V28.8372L0 32.5581V34.4186H34V32.5581L30.2222 28.8372V17.6744C30.2222 11.4419 25.7644 6.23256 19.8333 4.96744V2.7907C19.8333 1.24651 18.5678 0 17 0ZM18.8889 12.093H15.1111V17.6744H9.44444V21.3953H15.1111V26.9767H18.8889V21.3953H24.5556V17.6744H18.8889V12.093Z" fill="#D9D9D9"/>
</svg>
