<svg width="66" height="53" viewBox="0 0 66 53" fill="none" xmlns="http://www.w3.org/2000/svg">
<path d="M66 19.875V6.625C66 2.98125 63.03 0 59.4 0H6.6C2.97 0 0.033 2.98125 0.033 6.625V19.875C3.663 19.875 6.6 22.8563 6.6 26.5C6.6 30.1437 3.663 33.125 0 33.125V46.375C0 50.0187 2.97 53 6.6 53H59.4C63.03 53 66 50.0187 66 46.375V33.125C62.37 33.125 59.4 30.1437 59.4 26.5C59.4 22.8563 62.37 19.875 66 19.875ZM59.4 15.0387C55.473 17.3244 52.8 21.6306 52.8 26.5C52.8 31.3694 55.473 35.6756 59.4 37.9613V46.375H6.6V37.9613C10.527 35.6756 13.2 31.3694 13.2 26.5C13.2 21.5975 10.56 17.3244 6.633 15.0387L6.6 6.625H59.4V15.0387ZM23.331 39.75L33 33.5225L42.669 39.75L39.732 28.62L48.609 21.3325L37.158 20.6369L33 9.9375L28.809 20.6038L17.358 21.2994L26.235 28.5869L23.331 39.75Z" fill="#D9D9D9"/>
</svg>
