<svg width="71" height="60" viewBox="0 0 71 60" fill="none" xmlns="http://www.w3.org/2000/svg">
<path d="M7.16087 49.4118V47.1176C7.16087 45.9176 7.73374 44.7882 8.62884 44.2588C14.6798 40.6941 21.59 38.8235 28.6435 38.8235C28.7509 38.8235 28.8225 38.8235 28.9299 38.8588C29.2879 36.3882 30.004 34.0235 31.0424 31.8706C30.2547 31.8 29.467 31.7647 28.6435 31.7647C19.9788 31.7647 11.887 34.1294 4.9768 38.1882C1.82602 40.0235 0 43.4824 0 47.1176V56.4706H33.1548C31.651 54.3529 30.4695 51.9529 29.6818 49.4118H7.16087Z" fill="#D9D9D9"/>
<path d="M28.6435 28.2353C36.5562 28.2353 42.9652 21.9176 42.9652 14.1176C42.9652 6.31765 36.5562 0 28.6435 0C20.7307 0 14.3217 6.31765 14.3217 14.1176C14.3217 21.9176 20.7307 28.2353 28.6435 28.2353ZM28.6435 7.05882C32.5819 7.05882 35.8043 10.2353 35.8043 14.1176C35.8043 18 32.5819 21.1765 28.6435 21.1765C24.705 21.1765 21.4826 18 21.4826 14.1176C21.4826 10.2353 24.705 7.05882 28.6435 7.05882Z" fill="#D9D9D9"/>
<path d="M67.1331 42.3529C67.1331 41.5765 67.0257 40.8706 66.9183 40.1294L71 36.5647L67.4196 30.4588L62.2279 32.1882C61.0822 31.2353 59.7932 30.4941 58.3611 29.9647L57.2869 24.7059H50.1261L49.0519 29.9647C47.6198 30.4941 46.3308 31.2353 45.1851 32.1882L39.9934 30.4588L36.413 36.5647L40.4947 40.1294C40.3873 40.8706 40.2799 41.5765 40.2799 42.3529C40.2799 43.1294 40.3873 43.8353 40.4947 44.5765L36.413 48.1412L39.9934 54.2471L45.1851 52.5176C46.3308 53.4706 47.6198 54.2118 49.0519 54.7412L50.1261 60H57.2869L58.3611 54.7412C59.7932 54.2118 61.0822 53.4706 62.2279 52.5176L67.4196 54.2471L71 48.1412L66.9183 44.5765C67.0257 43.8353 67.1331 43.1294 67.1331 42.3529ZM53.7065 49.4118C49.768 49.4118 46.5456 46.2353 46.5456 42.3529C46.5456 38.4706 49.768 35.2941 53.7065 35.2941C57.645 35.2941 60.8674 38.4706 60.8674 42.3529C60.8674 46.2353 57.645 49.4118 53.7065 49.4118Z" fill="#D9D9D9"/>
</svg>
