<svg width="15" height="17" viewBox="0 0 15 17" fill="none" xmlns="http://www.w3.org/2000/svg">
<path d="M3.33333 7.65H5V9.35H3.33333V7.65ZM15 3.4V15.3C15 16.235 14.25 17 13.3333 17H1.66667C0.741667 17 0 16.235 0 15.3L0.00833333 3.4C0.00833333 2.465 0.741667 1.7 1.66667 1.7H2.5V0H4.16667V1.7H10.8333V0H12.5V1.7H13.3333C14.25 1.7 15 2.465 15 3.4ZM1.66667 5.1H13.3333V3.4H1.66667V5.1ZM13.3333 15.3V6.8H1.66667V15.3H13.3333ZM10 9.35H11.6667V7.65H10V9.35ZM6.66667 9.35H8.33333V7.65H6.66667V9.35Z" fill="#AAAAAA"/>
</svg>
