<svg width="15" height="11" viewBox="0 0 15 11" fill="none" xmlns="http://www.w3.org/2000/svg">
<path d="M5.25 6.875C3.495 6.875 0 7.79429 0 9.625V11H10.5V9.625C10.5 7.79429 7.005 6.875 5.25 6.875ZM1.755 9.42857C2.385 8.97286 3.9075 8.44643 5.25 8.44643C6.5925 8.44643 8.115 8.97286 8.745 9.42857H1.755ZM5.25 5.5C6.6975 5.5 7.875 4.26643 7.875 2.75C7.875 1.23357 6.6975 0 5.25 0C3.8025 0 2.625 1.23357 2.625 2.75C2.625 4.26643 3.8025 5.5 5.25 5.5ZM5.25 1.57143C5.8725 1.57143 6.375 2.09786 6.375 2.75C6.375 3.40214 5.8725 3.92857 5.25 3.92857C4.6275 3.92857 4.125 3.40214 4.125 2.75C4.125 2.09786 4.6275 1.57143 5.25 1.57143ZM10.53 6.92214C11.4 7.58214 12 8.46214 12 9.625V11H15V9.625C15 8.03786 12.375 7.13429 10.53 6.92214ZM9.75 5.5C11.1975 5.5 12.375 4.26643 12.375 2.75C12.375 1.23357 11.1975 0 9.75 0C9.345 0 8.97 0.102143 8.625 0.275C9.0975 0.974286 9.375 1.83071 9.375 2.75C9.375 3.66929 9.0975 4.52571 8.625 5.225C8.97 5.39786 9.345 5.5 9.75 5.5Z" fill="#AAAAAA"/>
</svg>
