<svg width="69" height="66" viewBox="0 0 69 66" fill="none" xmlns="http://www.w3.org/2000/svg">
<path d="M69 32.9686L61.3473 24.2L62.4136 12.6029L51.0914 10.0257L45.1636 0L34.5 4.58857L23.8364 0L17.9086 10.0257L6.58636 12.5714L7.65273 24.2L0 32.9686L7.65273 41.7371L6.58636 53.3657L17.9086 55.9429L23.8364 66L34.5 61.38L45.1636 65.9686L51.0914 55.9429L62.4136 53.3657L61.3473 41.7686L69 32.9686ZM56.6114 37.62L54.855 39.6629L55.1059 42.3343L55.6705 48.4629L47.0768 50.4114L45.6968 52.7371L42.5918 58.0171L37.0091 55.5971L34.5 54.5286L32.0223 55.5971L26.4395 58.0171L23.3345 52.7686L21.9545 50.4429L13.3609 48.4943L13.9255 42.3343L14.1764 39.6629L12.42 37.62L8.37409 33L12.42 28.3486L14.1764 26.3057L13.8941 23.6029L13.3295 17.5057L21.9232 15.5571L23.3032 13.2314L26.4082 7.95143L31.9909 10.3714L34.5 11.44L36.9777 10.3714L42.5605 7.95143L45.6655 13.2314L47.0455 15.5571L55.6391 17.5057L55.0745 23.6343L54.8236 26.3057L56.58 28.3486L60.6259 32.9686L56.6114 37.62Z" fill="#D9D9D9"/>
<path d="M28.5095 38.5L21.2332 31.1771L16.5914 35.86L28.5095 47.8343L51.5305 24.7029L46.8886 20.02L28.5095 38.5Z" fill="#D9D9D9"/>
</svg>
